<svg width="1865" height="163" viewBox="0 0 1865 163" fill="none" xmlns="http://www.w3.org/2000/svg">
<path d="M7.74216 22.2223V143H128.83C171.876 143 182.715 136.651 182.715 111.257C182.715 92.8308 170.018 84.1596 140.443 82.4563V81.5273C167.076 80.2885 178.379 71.927 178.379 53.6555C178.379 28.5709 168.469 22.2223 128.83 22.2223H7.74216ZM60.3888 116.677V94.0696H105.139C121.707 94.0696 128.83 97.4761 128.83 105.528C128.83 114.509 124.029 116.677 105.139 116.677H60.3888ZM60.3888 69.2947V48.5457H102.042C120.003 48.5457 124.494 50.7135 124.494 59.075C124.494 66.1978 117.836 69.2947 102.042 69.2947H60.3888ZM288.412 118.535C253.108 118.535 249.237 116.986 249.237 102.431H195.816C195.816 136.342 215.481 144.858 289.341 144.858C363.202 144.858 381.628 138.045 381.628 110.483C381.628 80.5982 363.047 72.0818 288.722 68.0559C259.921 66.3526 252.644 64.1848 252.644 56.9072C252.644 47.7715 256.36 46.6876 289.341 46.6876C323.562 46.6876 327.433 48.3908 327.433 64.4945H380.854C380.854 29.1903 361.653 20.3642 289.341 20.3642C216.565 20.3642 198.448 27.6418 198.448 56.5975C198.448 82.766 215.326 90.5082 283.148 95.618C318.607 98.2503 327.433 100.883 327.433 108.78C327.433 117.606 323.562 118.535 288.412 118.535ZM446.662 143V58.9202H448.056L479.489 143H542.665L574.253 57.062H575.182V143H627.829V22.2223H545.916L515.722 104.134H514.483L483.979 22.532L395.564 22.2223V143H446.662ZM645.575 143H698.222V77.5013H699.151L775.334 143H822.096V22.2223H769.45L769.604 86.3274H768.675L694.351 22.2223H645.575V143ZM889.644 143H942.291V50.0941H999.273V22.2223H832.971V50.0941H889.644V143ZM1130.33 143H1182.98V50.0941H1239.96V22.2223H1073.66V50.0941H1130.33V143ZM1250.8 22.2223V143H1409.05V115.128H1303.45V94.2244H1402.55V69.4495H1303.45V50.0941H1408.74V22.2223H1250.8ZM1554.93 22.2223H1468.06L1406.74 143H1461.71L1471.47 122.561H1548.89L1557.56 143H1614.54L1554.93 22.2223ZM1484.01 96.2374L1509.1 43.9004H1510.33L1536.66 96.2374H1484.01ZM1676.41 143V58.9202H1677.81L1709.24 143H1772.42L1804 57.062H1804.93V143H1857.58V22.2223H1775.67L1745.47 104.134H1744.23L1713.73 22.532L1625.31 22.2223V143H1676.41Z" fill="white"/>
</svg>
