<svg xmlns="http://www.w3.org/2000/svg" width="40" height="40" fill="none">
    <path fill="#000" d="M40 0H0v40h40V0Z" />
    <path fill="#fff"
        d="M13.442 21.037c0-1.01.819-1.83 1.83-1.83h2.899c1.01 0 1.83.82 1.83 1.83v4.394a1.83 1.83 0 0 1-1.83 1.83h-2.9a1.83 1.83 0 0 1-1.83-1.83v-4.394Zm-.185 6.72c0 2.653 2.15 4.743 4.804 4.743h2.915a4.88 4.88 0 0 0 4.88-4.88v-8.837a4.88 4.88 0 0 0-4.88-4.88h-3.66c-2.144 0-3.887 1.793-3.902 3.937V7.5H7.559v24.878h5.698v-4.621ZM32.443 27.26H27.32v5.124h5.123V27.26Z" />
</svg>